<?xml version="1.0" standalone="no"?><!DOCTYPE svg PUBLIC "-//W3C//DTD SVG 1.1//EN" "http://www.w3.org/Graphics/SVG/1.1/DTD/svg11.dtd"><svg t="1622625843945" class="icon" viewBox="0 0 1024 1024" version="1.1" xmlns="http://www.w3.org/2000/svg" p-id="1233" xmlns:xlink="http://www.w3.org/1999/xlink" width="200" height="200"><defs><style type="text/css"></style></defs><path d="M560 504v32c0 4.4-3.6 8-8 8h-80c-4.4 0-8-3.6-8-8v-32c0-4.4 3.6-8 8-8h80c4.4 0 8 3.6 8 8z" p-id="1234"></path><path d="M992 504.5v383.4375c0 33.09375-26.90625 60-60 60H92c-33.09375 0-60-26.90625-60-60V504.5c0-4.125 3.375-7.5 7.5-7.5h360c4.125 0 7.5 3.375 7.5 7.5v37.5c0 33.09375 26.90625 60 60 60h90c33.09375 0 60-26.90625 60-60v-37.5c0-4.125 3.375-7.5 7.5-7.5h360c4.125 0 7.5 3.375 7.5 7.5zM872 197.9375H729.5c-4.125 0-7.5-3.375-7.5-7.5v-23.4375c0-49.6875-40.3125-90-90-90H392c-49.6875 0-90 40.3125-90 90v23.4375c0 4.125-3.375 7.5-7.5 7.5H152C85.71875 197.9375 32 251.65625 32 317.9375v111.5625c0 4.125 3.375 7.5 7.5 7.5h945c4.125 0 7.5-3.375 7.5-7.5V317.9375c0-66.28125-53.71875-120-120-120z m-510-30.9375c0-16.59375 13.40625-30 30-30h240c16.59375 0 30 13.40625 30 30v22.5c0 4.125-3.375 7.5-7.5 7.5H369.5c-4.125 0-7.5-3.375-7.5-7.5v-22.5z" p-id="1235"></path></svg>