<?xml version="1.0" standalone="no"?><!DOCTYPE svg PUBLIC "-//W3C//DTD SVG 1.1//EN" "http://www.w3.org/Graphics/SVG/1.1/DTD/svg11.dtd"><svg t="1625554883850" class="icon" viewBox="0 0 1024 1024" version="1.1" xmlns="http://www.w3.org/2000/svg" p-id="821" xmlns:xlink="http://www.w3.org/1999/xlink" width="128" height="128"><defs><style type="text/css"></style></defs><path d="M65.6 674.879v49.28c0 34.24 27.52 62.08 62.08 62.4H897.6c34.24 0 62.08-27.52 62.4-62.08v-49.6H65.6z" p-id="822"></path><path d="M706.55 842.241h-52.48l-25.28-123.84c-3.2-14.72-16-25.28-30.72-25.28H427.19c-14.72 0-27.84 10.56-30.72 25.28l-25.92 123.84h-51.2c-17.28 0-31.36 14.08-31.36 31.36s14.08 31.36 31.36 31.36h387.2c17.28-0.64 31.36-14.08 31.36-31.36s-14.08-31.36-31.36-31.36z m-271.36-0.642l17.92-86.4h119.68l17.92 86.4H435.19zM897.91 120H127.99c-34.24 0-62.08 27.52-62.4 62.08v407.36h894.4V182.4c0-34.56-27.52-62.4-62.08-62.4z m-489.6 399.359c-0.32 7.68-10.56 14.08-23.04 14.08h-22.72c-12.48 0-22.72-6.4-22.72-14.08v-68.48l68.48-31.68v100.16z m102.08 0c0 7.68-10.88 14.08-24.64 14.08h-24.64c-13.44 0-24.64-6.4-24.64-14.08v-142.4l23.04-9.92 50.56 22.08v130.24h0.32z m69.76 14.081h-20.8c-11.52 0-20.8-6.4-20.8-14.08V430.4l0.64 0.32c2.56 0.64 5.12 0.96 7.68 0.96 2.88-0.32 5.76-0.64 8-1.6 0.96-0.32 1.6-0.64 2.56-0.96 1.28-0.64 2.56-0.96 3.52-1.6l39.68-27.2 0.32 119.04c0 7.68-9.28 14.08-20.8 14.08z m115.2-16.32c0 7.68-10.56 13.76-23.36 13.76h-23.36c-13.12 0-23.36-6.08-23.36-13.76v-169.6l70.4-41.28v210.88h-0.32z m-40.96-267.2L536.31 351.68l-85.76-72.64-77.44 68.48-42.88-31.68 119.36-103.68 84.8 70.08 78.4-70.08L580.15 184h115.2l0.32 96.64-41.28-30.72z" p-id="823"></path></svg>