<?xml version="1.0" standalone="no"?><!DOCTYPE svg PUBLIC "-//W3C//DTD SVG 1.1//EN" "http://www.w3.org/Graphics/SVG/1.1/DTD/svg11.dtd"><svg t="1625129281101" class="icon" viewBox="0 0 1030 1024" version="1.1" xmlns="http://www.w3.org/2000/svg" p-id="969" xmlns:xlink="http://www.w3.org/1999/xlink" width="128.75" height="128"><defs><style type="text/css"></style></defs><path d="M498.347 928.427zM716.8 27.307H122.88C58.027 23.893 0 71.68 0 129.707v723.626c0 58.027 58.027 105.814 122.88 102.4h341.333c20.48 0 30.72-10.24 34.134-27.306 0 0-3.414-17.067-10.24-34.134-6.827-20.48-27.307-47.786-37.547-81.92-13.653-61.44-10.24-136.533 13.653-208.213 30.72-88.747 88.747-170.667 286.72-180.907 3.414 3.414 34.134 0 37.547 3.414 23.893 3.413 44.373-6.827 51.2-27.307V129.707c-3.413-58.027-54.613-102.4-122.88-102.4zM406.187 634.88h-184.32c-10.24 0-17.067-17.067-17.067-34.133 0-20.48 6.827-34.134 17.067-34.134h184.32c10.24 0 17.066 17.067 17.066 34.134 0 20.48-6.826 34.133-17.066 34.133z m163.84-191.147h-327.68c-20.48 0-37.547-17.066-37.547-34.133 0-20.48 17.067-34.133 37.547-34.133h327.68c20.48 0 37.546 17.066 37.546 34.133-3.413 20.48-20.48 34.133-37.546 34.133zM600.747 256H238.933c-17.066 0-34.133-13.653-34.133-34.133s17.067-34.134 37.547-34.134h358.4c20.48 0 37.546 17.067 37.546 34.134-3.413 20.48-20.48 34.133-37.546 34.133z" p-id="970"></path><path d="M1017.173 669.013c-3.413-20.48-17.066-34.133-34.133-34.133h-3.413c-30.72 0-58.027-27.307-58.027-58.027 0-6.826 3.413-20.48 6.827-23.893 6.826-20.48 0-40.96-17.067-51.2l-68.267-37.547c-17.066-6.826-37.546-3.413-51.2 10.24-10.24 10.24-30.72 27.307-47.786 27.307s-37.547-17.067-47.787-27.307c-13.653-13.653-34.133-17.066-51.2-10.24l-68.267 37.547c-17.066 10.24-23.893 34.133-13.653 51.2 0 0 3.413 13.653 3.413 23.893 0 30.72-27.306 58.027-58.026 58.027h-3.414c-17.066 0-30.72 13.653-34.133 34.133-3.413 17.067-6.827 34.134-6.827 54.614 0 23.893 6.827 51.2 6.827 54.613 3.413 20.48 17.067 34.133 34.133 34.133H512c30.72 0 58.027 27.307 58.027 58.027 0 6.827-3.414 20.48-3.414 23.893-6.826 20.48 0 40.96 17.067 51.2l68.267 37.547c17.066 6.827 37.546 3.413 51.2-10.24 6.826-10.24 30.72-27.307 47.786-27.307 17.067 0 37.547 20.48 47.787 30.72 13.653 13.654 34.133 17.067 51.2 10.24l68.267-37.546c17.066-10.24 23.893-34.134 13.653-51.2-3.413-6.827-3.413-13.654-3.413-23.894 0-30.72 27.306-58.026 58.026-58.026h3.414c17.066 0 30.72-13.654 34.133-34.134 0 0 6.827-30.72 6.827-54.613-6.827-27.307-13.654-54.613-13.654-58.027zM740.693 819.2c-54.613 0-102.4-44.373-102.4-102.4s44.374-102.4 102.4-102.4c54.614 0 102.4 44.373 102.4 102.4s-47.786 102.4-102.4 102.4z" p-id="971"></path></svg>