<?xml version="1.0" standalone="no"?><!DOCTYPE svg PUBLIC "-//W3C//DTD SVG 1.1//EN" "http://www.w3.org/Graphics/SVG/1.1/DTD/svg11.dtd"><svg t="1625132192110" class="icon" viewBox="0 0 1024 1024" version="1.1" xmlns="http://www.w3.org/2000/svg" p-id="808" xmlns:xlink="http://www.w3.org/1999/xlink" width="128" height="128"><defs><style type="text/css"></style></defs><path d="M649.644 672.524a87.073 87.073 0 0 0 43.526 75.428 87.073 87.073 0 0 0 87.09 0.004 87.073 87.073 0 0 0 43.534-75.428c0-48.092-38.985-87.077-87.075-87.077s-87.075 38.984-87.075 87.074v-0.001z" p-id="809"></path><path d="M908.844 924.976c0-95.062-77.062-172.125-172.125-172.125S564.594 829.914 564.594 924.976c0 13.95 1.856 27.506 5.006 40.5h334.294c3.094-12.994 4.95-26.494 4.95-40.5z" p-id="810"></path><path d="M758.6 469.1c35.6 0 69.9 6 101.8 17V72.5c0-39.1-31.7-70.7-70.7-70.7H95c-39.1 0-70.7 31.7-70.7 70.7v833.2c0 39.1 31.7 70.7 70.7 70.7h420.4c-43-53.5-68.8-121.4-68.8-195.4 0-172.2 139.7-311.9 312-311.9zM140.3 232.7c0-24.9 20.2-45 45-45h504.9c24.9 0 45 20.2 45 45 0 24.9-20.2 45-45 45H185.3c-24.8 0-45-20.1-45-45z m0 221.2c0-24.9 20.2-45 45-45h295.3c24.9 0 45 20.2 45 45 0 24.9-20.2 45-45 45H185.3c-24.8 0-45-20.1-45-45z m270.9 221.202c0 24.9-20.2 45-45 45H185.3c-24.9 0-45-20.2-45-45 0-24.9 20.2-45 45-45h180.9c24.8 0 45 20.2 45 45z" p-id="811"></path></svg>