<?xml version="1.0" standalone="no"?><!DOCTYPE svg PUBLIC "-//W3C//DTD SVG 1.1//EN" "http://www.w3.org/Graphics/SVG/1.1/DTD/svg11.dtd"><svg t="1625129645485" class="icon" viewBox="0 0 1024 1024" version="1.1" xmlns="http://www.w3.org/2000/svg" p-id="654" xmlns:xlink="http://www.w3.org/1999/xlink" width="128" height="128"><defs><style type="text/css"></style></defs><path d="M707.492 875.055H316.51c-18.618 0-37.236 18.618-37.236 37.236 0 18.619 18.618 37.237 37.236 37.237h390.982c18.618 0 37.236-13.964 37.236-37.237 0-18.618-18.618-37.236-37.236-37.236zM884.364 74.473H139.637c-51.2 0-93.091 41.89-93.091 93.09V726.11c0 51.2 41.89 93.09 93.09 93.09h744.728c51.2 0 93.09-41.89 93.09-93.09V167.564c0-51.2-41.89-93.091-93.09-93.091z" p-id="655"></path><path d="M633.78 404.763c9.31-65.163-18.617-130.327-69.817-167.564-51.2-41.89-125.672-51.2-181.527-27.927-9.31 0-13.964 9.31-13.964 13.964l-4.654 4.654-4.655 4.655c0 9.309 0 18.618 9.309 27.927l74.473 74.473c0 4.655 4.655 4.655 4.655 4.655s0 4.654-4.655 9.309l-23.273 23.273c-4.654 4.654-4.654 4.654-13.963 4.654l-4.655-4.654-69.818-69.82c-9.31-9.308-18.619-9.308-27.928-9.308-18.618 0-23.272 9.309-27.927 23.273-27.927 60.509-13.964 134.982 27.927 181.527 37.237 51.2 102.4 79.128 167.564 69.819l97.746 97.745C591.89 688.69 619.818 698 652.4 698h4.654c27.927 0 55.855-13.964 74.473-32.582 23.273-23.273 37.236-55.855 32.582-83.782 0-27.927-13.964-55.854-32.582-74.473l-97.746-102.4z m46.547 209.455c-18.618 18.618-46.546 18.618-65.164 0L489.49 488.545l-13.963 9.31c-37.237 9.309-79.128 0-107.055-23.273-23.273-18.618-37.237-46.546-37.237-74.473l23.273 23.273c13.964 13.963 32.582 23.273 55.855 23.273 23.273 0 41.89-9.31 55.855-23.273l23.272-23.273c13.964-13.964 23.273-32.582 23.273-55.854 0-23.273-9.31-41.891-23.273-55.855l-18.618-23.273c27.927 4.654 55.855 18.618 74.473 41.89 23.273 27.928 32.582 65.165 27.927 107.056l-4.654 18.618 130.327 125.673c4.654 4.654 9.309 9.309 9.309 18.618-9.31 13.963-18.618 27.927-27.927 37.236z" fill="#ffffff" p-id="656"></path></svg>