<?xml version="1.0" standalone="no"?><!DOCTYPE svg PUBLIC "-//W3C//DTD SVG 1.1//EN" "http://www.w3.org/Graphics/SVG/1.1/DTD/svg11.dtd"><svg t="1622625062288" class="icon" viewBox="0 0 1055 1024" version="1.1" xmlns="http://www.w3.org/2000/svg" p-id="871" xmlns:xlink="http://www.w3.org/1999/xlink" width="206.0546875" height="200"><defs><style type="text/css"></style></defs><path d="M761.09390469 249.72652343a336.34266844 336.34266844 0 0 0-285.4695225-158.15485968A337.39703438 337.39703438 0 0 0 139.28171375 427.38714969v184.51400343s-117.29818781 98.84678719-105.43657406 202.70181188h572.25700219s-158.15485969-88.83031313-131.79571688-312.61943906 286.78747969-252.25700156 286.78747969-252.25700249z" p-id="872"></path><path d="M358.06260313 32m99.63756187 0l17.1334425 0q99.63756188 0 99.63756187 99.63756188l0 113.6079075q0 99.63756188-99.63756187 99.63756187l-17.1334425 0q-99.63756188 0-99.63756189-99.63756187l0-113.60790751q0-99.63756188 99.63756189-99.63756187Z" p-id="873"></path><path d="M603.99340999 878.12850125c0 62.73476156-61.68039563 113.87149875-137.59472811 113.87149875s-137.85831938-51.13673813-137.85831938-113.87149875M970.3855025 555.49258625a57.19934063 57.19934063 0 0 1 50.08237219-56.67215813 247.51235625 247.51235625 0 0 0-26.35914281-67.21581562 56.93574938 56.93574938 0 0 1-79.07743032-80.92257 240.39538687 240.39538687 0 0 0-74.59637531-31.63097156 13.44316311 13.44316311 0 0 1 0 3.42668812 57.46293281 57.46293281 0 0 1-114.66227344 0v-3.42668812a240.39538687 240.39538687 0 0 0-74.59637626 31.63097156 56.67215813 56.67215813 0 0 1-44.54695217 92.52059344 57.72652406 57.72652406 0 0 1-34.26688594-11.59802344 246.98517281 246.98517281 0 0 0-26.35914375 66.68863312 57.19934063 57.19934063 0 0 1 0 114.39868219 245.40362437 245.40362437 0 0 0 32.158155 76.441515 56.93574938 56.93574938 0 0 1 81.4497525 79.07743031A241.44975281 241.44975281 0 0 0 726.03624406 796.41515655 56.93574938 56.93574938 0 0 1 822.77429937 761.62108719a55.61779219 55.61779219 0 0 1 16.34266969 34.79406938 245.40362437 245.40362437 0 0 0 75.38715-31.89456376 56.93574938 56.93574938 0 0 1 79.07742938-81.4497525 240.13179562 240.13179562 0 0 0 27.67710093-71.16968718 56.93574938 56.93574938 0 0 1-50.87314687-56.40856688z" p-id="874"></path><path d="M782.70840219 557.33772688m-100.69192782 0a100.69192781 100.69192781 0 1 0 201.38385469 0 100.69192781 100.69192781 0 1 0-201.38385469 0Z" p-id="875"></path></svg>