<?xml version="1.0" standalone="no"?><!DOCTYPE svg PUBLIC "-//W3C//DTD SVG 1.1//EN" "http://www.w3.org/Graphics/SVG/1.1/DTD/svg11.dtd"><svg t="1622628815459" class="icon" viewBox="0 0 1055 1024" version="1.1" xmlns="http://www.w3.org/2000/svg" p-id="1749" xmlns:xlink="http://www.w3.org/1999/xlink" width="206.0546875" height="200"><defs><style type="text/css"></style></defs><path d="M474.834 32H457.7c-59.758 0-92.634 26.879-98.633 80.636-127.872 47.559-219.11 170.424-219.786 314.751v184.515s-117.298 98.846-105.436 202.7h572.257s-158.155-88.83-131.796-312.618c26.36-223.79 286.787-252.257 286.787-252.257-43.865-70.224-111.346-120.775-188.562-143.96C564.554 56.589 531.988 32 474.834 32zM527 569c0-141.38 114.62-256 256-256 141.39 0 256.002 114.62 256.002 256S924.38 825 783 825 527 710.38 527 569z m224 32l96 96 45.25-45.26L815 574.49V377h-64v224zM466.4 992.001c75.914 0 137.594-51.138 137.594-113.872H328.541c0 62.734 61.944 113.872 137.858 113.872z" p-id="1750"></path></svg>